<?xml version="1.0" encoding="UTF-8"?>
<svg xmlns="http://www.w3.org/2000/svg" id="Ebene_1" version="1.1" viewBox="0 0 250.7 149.3">
  <defs>
    <style>
      .st0 {
        fill: #ea5451;
      }

      .st1 {
        fill: #003754;
      }
    </style>
  </defs>
  <rect class="st0" x="32" y="66.9" width="16" height="50.4"></rect>
  <g>
    <path class="st1" d="M100.5,72.2c4.4-1.2,8.1-3.4,10.9-6.5,2.8-3.1,4.3-7,4.3-11.9,0-7.4-2.9-12.9-8.7-16.5-5.8-3.6-14.1-5.4-24.8-5.4h-21.2v85.3h24.3c10.5,0,18.8-1.9,24.7-5.9,6-3.9,8.9-10.2,8.9-18.8s-1.7-10.9-5-14.1c-3.3-3.1-7.8-5.3-13.4-6.4ZM78.7,44.8h5.2c4.8,0,8.2.8,10.4,2.5,2.2,1.6,3.3,4.4,3.3,8.1,0,7.6-4.2,11.3-12.5,11.3h-6.4v-21.9ZM96.7,101.4c-2.6,1.8-6.4,2.7-11.4,2.7h-6.7v-25.3h7.6c9.5,0,14.3,4.3,14.3,12.9s-1.3,7.8-3.9,9.6Z"></path>
    <rect class="st1" x="128" y="32" width="17.8" height="85.3"></rect>
    <polygon class="st1" points="201.1 65.8 177.4 65.8 177.4 32 159.6 32 159.6 117.3 177.4 117.3 177.4 79.8 201.1 79.8 201.1 117.3 218.8 117.3 218.8 32 201.1 32 201.1 65.8"></polygon>
  </g>
</svg>
