<?xml version="1.0" encoding="UTF-8" standalone="no"?>
<!-- Created with Inkscape (http://www.inkscape.org/) -->

<svg
   version="1.1"
   id="svg1"
   width="1280.0126"
   height="720"
   viewBox="0 0 1280.0126 720"
   sodipodi:docname="title_background_white.svg"
   inkscape:version="1.4.3 (0d15f75042, 2025-12-25)"
   xmlns:inkscape="http://www.inkscape.org/namespaces/inkscape"
   xmlns:sodipodi="http://sodipodi.sourceforge.net/DTD/sodipodi-0.dtd"
   xmlns="http://www.w3.org/2000/svg"
   xmlns:svg="http://www.w3.org/2000/svg">
  <defs
     id="defs1">
    <clipPath
       clipPathUnits="userSpaceOnUse"
       id="clipPath3">
      <path
         d="M 0,0.028 H 959.98102 V 540.00001 H 0 Z"
         clip-rule="evenodd"
         id="path3" />
    </clipPath>
    <clipPath
       clipPathUnits="userSpaceOnUse"
       id="clipPath45">
      <path
         d="m 960.00902,464.85401 c -497.42301,0 -497.42301,0 -497.42301,0 -12.586,0 -34.186,-9.043 -43.2,-18.085 -64.205,-65.112 -64.205,-65.112 -64.205,-65.112 -14.4,-13.266 -37.19,-22.904 -57.005,-23.528 -298.17601,0 -298.17601,0 -298.17601,0 0,19.304 0,19.304 0,19.304 298.17601,0 298.17601,0 298.17601,0 13.21,0 34.81,9.043 43.2,18.085 64.8,65.112 64.8,65.112 64.8,65.112 13.805,13.266 37.219,22.904 56.41,23.499 497.42301,0 497.42301,0 497.42301,0 z"
         clip-rule="evenodd"
         id="path45" />
    </clipPath>
    <clipPath
       clipPathUnits="userSpaceOnUse"
       id="clipPath46">
      <path
         d="M 0,242.532 H 1280.0507 V 74.493333 H 0 Z"
         id="path46" />
    </clipPath>
    <clipPath
       clipPathUnits="userSpaceOnUse"
       id="clipPath135">
      <path
         d="m 638.73102,464.42801 h 19.871 v 19.73 h -19.871 z"
         id="path135" />
    </clipPath>
    <clipPath
       clipPathUnits="userSpaceOnUse"
       id="clipPath137">
      <path
         d="m 228.38701,358.12901 h 19.871 v 19.73 h -19.871 z"
         id="path137" />
    </clipPath>
  </defs>
  <sodipodi:namedview
     id="namedview1"
     pagecolor="#ffffff"
     bordercolor="#666666"
     borderopacity="1.0"
     inkscape:showpageshadow="2"
     inkscape:pageopacity="0.0"
     inkscape:pagecheckerboard="0"
     inkscape:deskcolor="#d1d1d1"
     inkscape:zoom="0.9125"
     inkscape:cx="640.54795"
     inkscape:cy="360"
     inkscape:window-width="1536"
     inkscape:window-height="898"
     inkscape:window-x="0"
     inkscape:window-y="0"
     inkscape:window-maximized="1"
     inkscape:current-layer="g1">
    <inkscape:page
       x="0"
       y="0"
       inkscape:label="1"
       id="page1"
       width="1280.0126"
       height="720"
       margin="0"
       bleed="0" />
  </sodipodi:namedview>
  <g
     id="g1"
     inkscape:groupmode="layer"
     inkscape:label="1">
    <g
       id="g2">
      <path
         id="path2"
         d="M 0,540 H 959.981 V 0.028 L 0,0.028 Z"
         style="fill:#ffffff;fill-opacity:1;fill-rule:evenodd;stroke:none"
         transform="matrix(1.3333333,0,0,-1.3333333,0,720)"
         clip-path="url(#clipPath3)" />
    </g>
    <path
       id="path4"
       d="M 0,540 H 960.009 V 0 H 0 Z"
       style="fill:#ffffff;fill-opacity:1;fill-rule:evenodd;stroke:none"
       transform="matrix(1.3333333,0,0,-1.3333333,0,720)" />
    <g
       id="g4">
      <path
         id="path5"
         d="m 41.102,479.48 h 8.703 v -26.844 h -8.703 z"
         style="fill:#ea5451;fill-opacity:1;fill-rule:evenodd;stroke:none"
         transform="matrix(1.3333333,0,0,-1.3333333,0,720)" />
      <path
         id="path6"
         d="m 78.265,476.674 c 2.437,0.68 4.365,1.786 5.924,3.458 1.531,1.616 2.296,3.714 2.296,6.293 0,3.94 -1.531,6.888 -4.705,8.788 -3.147,1.899 -7.654,2.863 -13.465,2.863 H 56.778 v -45.44 h 13.181 c 5.726,0 10.205,1.049 13.465,3.118 3.203,2.098 4.819,5.415 4.819,10.035 0,3.288 -0.908,5.811 -2.722,7.455 -1.786,1.673 -4.223,2.835 -7.256,3.43 z m -11.821,14.57 h 2.806 c 2.58,0 4.451,-0.425 5.67,-1.304 1.162,-0.879 1.729,-2.353 1.729,-4.337 0,-4.053 -2.24,-6.038 -6.775,-6.038 h -3.43 v 11.679 z m 9.808,-30.132 c -1.417,-0.964 -3.487,-1.446 -6.208,-1.446 h -3.628 v 13.465 h 4.167 c 5.187,0 7.767,-2.296 7.767,-6.917 0,-2.438 -0.737,-4.167 -2.098,-5.102 z"
         style="fill:#003754;fill-opacity:1;fill-rule:evenodd;stroke:none"
         transform="matrix(1.3333333,0,0,-1.3333333,0,720)" />
      <path
         id="path7"
         d="m 93.175,452.636 h 9.666 v 45.44 h -9.666 z"
         style="fill:#003754;fill-opacity:1;fill-rule:evenodd;stroke:none"
         transform="matrix(1.3333333,0,0,-1.3333333,0,720)" />
      <path
         id="path8"
         d="m 132.917,480.076 h -12.898 v 18 h -9.638 v -45.44 h 9.638 v 19.956 h 12.898 v -19.956 h 9.637 v 45.44 h -9.637 z"
         style="fill:#003754;fill-opacity:1;fill-rule:evenodd;stroke:none"
         transform="matrix(1.3333333,0,0,-1.3333333,0,720)" />
      <path
         id="path9"
         d="m 154.375,493.228 c 0.567,0.114 1.02,0.397 1.332,0.766 0.369,0.397 0.539,0.85 0.539,1.445 0,0.879 -0.34,1.531 -0.992,1.956 -0.652,0.425 -1.531,0.624 -2.75,0.624 l -2.211,0.057 -0.085,-10.205 h 2.664 c 1.163,0 2.098,0.198 2.75,0.68 0.652,0.454 1.021,1.191 1.021,2.183 0,1.389 -0.766,2.268 -2.268,2.494 z m -2.721,3.77 h 0.963 c 0.794,0 1.304,-0.17 1.673,-0.396 0.368,-0.284 0.538,-0.681 0.538,-1.219 0,-0.567 -0.17,-0.964 -0.51,-1.248 -0.312,-0.283 -0.794,-0.425 -1.361,-0.425 h -1.303 v 3.288 z m 2.919,-7.653 c -0.368,-0.284 -0.935,-0.397 -1.672,-0.397 h -1.276 l 0.029,3.713 h 1.417 c 1.417,0 2.098,-0.623 2.098,-1.899 0,-0.68 -0.199,-1.134 -0.596,-1.417 z"
         style="fill:#003754;fill-opacity:1;fill-rule:evenodd;stroke:none"
         transform="matrix(1.3333333,0,0,-1.3333333,0,720)" />
      <path
         id="path10"
         d="m 161.065,487.616 c 0.907,0 1.757,0.34 2.551,0.964 l -0.624,0.793 c -0.312,-0.227 -0.595,-0.397 -0.935,-0.51 -0.284,-0.113 -0.596,-0.17 -0.964,-0.17 -0.567,0 -1.021,0.198 -1.332,0.595 -0.341,0.397 -0.539,1.077 -0.567,1.984 l 4.62,-0.028 c 0.029,0.284 0.029,0.482 0.029,0.709 0,1.247 -0.227,2.182 -0.737,2.834 -0.511,0.652 -1.248,1.021 -2.212,1.021 -0.963,0 -1.7,-0.369 -2.267,-1.106 -0.539,-0.765 -0.822,-1.757 -0.822,-3.033 0,-1.247 0.255,-2.239 0.822,-2.976 0.567,-0.709 1.36,-1.077 2.438,-1.077 z m -1.361,6.576 c 0.283,0.397 0.709,0.624 1.19,0.624 1.134,-0.029 1.645,-0.822 1.645,-2.466 v -0.142 h -3.345 c 0.085,0.907 0.226,1.587 0.51,1.984 z"
         style="fill:#003754;fill-opacity:1;fill-rule:evenodd;stroke:none"
         transform="matrix(1.3333333,0,0,-1.3333333,0,720)" />
      <path
         id="path11"
         d="m 166.649,492.35 c 0.17,0.708 0.397,1.275 0.68,1.587 0.284,0.369 0.652,0.51 1.049,0.51 0.255,0 0.453,-0.028 0.652,-0.056 l 0.198,1.247 c -0.141,0.085 -0.397,0.142 -0.652,0.142 -0.907,0 -1.615,-0.596 -1.984,-1.73 l -0.113,1.531 -1.162,0.028 -0.057,-7.823 h 1.389 v 4.564 z"
         style="fill:#003754;fill-opacity:1;fill-rule:evenodd;stroke:none"
         transform="matrix(1.3333333,0,0,-1.3333333,0,720)" />
      <path
         id="path12"
         d="m 171.921,487.587 c 0.312,0 0.681,0.085 0.992,0.227 l -0.311,0.964 c -0.171,-0.085 -0.284,-0.113 -0.454,-0.113 -0.312,0 -0.454,0.198 -0.454,0.595 l 0.057,9.609 -1.389,-0.17 -0.028,-9.496 c 0,-0.51 0.113,-0.907 0.397,-1.19 0.283,-0.256 0.68,-0.426 1.19,-0.426 z"
         style="fill:#003754;fill-opacity:1;fill-rule:evenodd;stroke:none"
         transform="matrix(1.3333333,0,0,-1.3333333,0,720)" />
      <path
         id="path13"
         d="m 174.813,497.48 c 0.255,0 0.51,0.085 0.652,0.227 0.17,0.199 0.255,0.397 0.255,0.652 0,0.227 -0.085,0.425 -0.255,0.624 -0.199,0.17 -0.397,0.255 -0.652,0.255 -0.284,0 -0.482,-0.085 -0.624,-0.255 -0.17,-0.142 -0.255,-0.397 -0.255,-0.624 0,-0.255 0.085,-0.453 0.255,-0.595 0.142,-0.199 0.34,-0.284 0.624,-0.284 z"
         style="fill:#003754;fill-opacity:1;fill-rule:evenodd;stroke:none"
         transform="matrix(1.3333333,0,0,-1.3333333,0,720)" />
      <path
         id="path14"
         d="m 175.465,495.524 -1.333,0.057 -0.028,-7.824 h 1.332 z"
         style="fill:#003754;fill-opacity:1;fill-rule:evenodd;stroke:none"
         transform="matrix(1.3333333,0,0,-1.3333333,0,720)" />
      <path
         id="path15"
         d="m 178.668,493.257 c 0.538,0.963 1.134,1.389 1.814,1.389 0.368,0 0.624,-0.114 0.794,-0.312 0.141,-0.227 0.226,-0.595 0.226,-1.106 v -5.471 l 1.333,-0.056 0.056,5.697 c 0,0.709 -0.17,1.304 -0.538,1.701 -0.369,0.397 -0.851,0.624 -1.503,0.624 -0.878,0 -1.644,-0.425 -2.267,-1.332 l -0.085,1.133 h -1.163 l -0.028,-7.767 h 1.332 l 0.029,5.5 z"
         style="fill:#003754;fill-opacity:1;fill-rule:evenodd;stroke:none"
         transform="matrix(1.3333333,0,0,-1.3333333,0,720)" />
      <path
         id="path16"
         d="m 190.12,497.877 h -1.361 l -0.057,-10.176 h 1.389 z"
         style="fill:#003754;fill-opacity:1;fill-rule:evenodd;stroke:none"
         transform="matrix(1.3333333,0,0,-1.3333333,0,720)" />
      <path
         id="path17"
         d="m 193.38,493.228 c 0.566,0.907 1.162,1.389 1.814,1.389 0.368,0 0.623,-0.113 0.765,-0.368 0.198,-0.199 0.284,-0.595 0.284,-1.049 l -0.029,-5.528 h 1.361 v 5.67 c 0,0.708 -0.142,1.275 -0.51,1.701 -0.369,0.396 -0.851,0.595 -1.503,0.595 -0.879,0 -1.616,-0.425 -2.268,-1.332 l -0.085,1.19 h -1.162 l -0.056,-7.795 1.389,-0.029 v 5.556 z"
         style="fill:#003754;fill-opacity:1;fill-rule:evenodd;stroke:none"
         transform="matrix(1.3333333,0,0,-1.3333333,0,720)" />
      <path
         id="path18"
         d="m 202.11,492.208 c -0.623,0.198 -1.077,0.397 -1.275,0.538 -0.255,0.199 -0.369,0.454 -0.369,0.794 0,0.312 0.114,0.595 0.369,0.794 0.226,0.17 0.567,0.283 0.963,0.283 0.312,0 0.596,-0.085 0.879,-0.17 0.284,-0.113 0.624,-0.255 0.936,-0.51 l 0.567,0.794 c -0.709,0.595 -1.531,0.878 -2.41,0.878 -0.539,0.029 -0.992,-0.085 -1.389,-0.226 -0.397,-0.199 -0.68,-0.482 -0.935,-0.794 -0.199,-0.34 -0.312,-0.68 -0.312,-1.134 0,-0.51 0.142,-0.935 0.482,-1.304 0.312,-0.34 0.878,-0.623 1.615,-0.879 0.482,-0.141 0.851,-0.311 1.106,-0.425 0.227,-0.17 0.397,-0.283 0.482,-0.482 0.113,-0.141 0.142,-0.34 0.142,-0.623 0,-0.397 -0.114,-0.737 -0.397,-0.936 -0.284,-0.226 -0.652,-0.312 -1.077,-0.312 -0.709,0 -1.389,0.256 -1.985,0.766 l -0.708,-0.766 c 0.737,-0.68 1.615,-1.02 2.721,-1.02 0.822,0 1.502,0.198 2.013,0.595 0.566,0.425 0.85,0.992 0.85,1.758 0,0.595 -0.198,1.105 -0.567,1.445 -0.34,0.369 -0.907,0.652 -1.701,0.936 z"
         style="fill:#003754;fill-opacity:1;fill-rule:evenodd;stroke:none"
         transform="matrix(1.3333333,0,0,-1.3333333,0,720)" />
      <path
         id="path19"
         d="m 208.885,488.58 c -0.17,-0.029 -0.312,-0.029 -0.482,-0.029 -0.567,0 -0.85,0.312 -0.85,0.992 v 4.876 h 1.616 l 0.17,0.992 h -1.758 v 1.956 l -1.361,-0.17 v -1.786 h -1.133 v -0.992 h 1.133 l -0.056,-4.876 c 0,-0.68 0.17,-1.19 0.538,-1.559 0.369,-0.368 0.851,-0.567 1.503,-0.567 0.595,0 1.162,0.17 1.644,0.539 l -0.482,0.85 c -0.198,-0.113 -0.369,-0.141 -0.482,-0.226 z"
         style="fill:#003754;fill-opacity:1;fill-rule:evenodd;stroke:none"
         transform="matrix(1.3333333,0,0,-1.3333333,0,720)" />
      <path
         id="path20"
         d="m 211.039,487.587 h 1.361 l 0.057,7.824 h -1.389 z"
         style="fill:#003754;fill-opacity:1;fill-rule:evenodd;stroke:none"
         transform="matrix(1.3333333,0,0,-1.3333333,0,720)" />
      <path
         id="path21"
         d="m 211.748,499.068 c -0.227,0 -0.482,-0.085 -0.624,-0.227 -0.17,-0.17 -0.255,-0.397 -0.255,-0.652 0,-0.227 0.085,-0.425 0.255,-0.595 0.142,-0.17 0.397,-0.284 0.624,-0.284 0.283,0 0.51,0.085 0.652,0.284 0.17,0.17 0.255,0.368 0.255,0.595 0,0.255 -0.085,0.454 -0.255,0.652 -0.142,0.142 -0.369,0.227 -0.652,0.227 z"
         style="fill:#003754;fill-opacity:1;fill-rule:evenodd;stroke:none"
         transform="matrix(1.3333333,0,0,-1.3333333,0,720)" />
      <path
         id="path22"
         d="m 217.304,488.551 c -0.113,-0.057 -0.284,-0.057 -0.454,-0.057 -0.595,0 -0.878,0.312 -0.878,0.993 l 0.028,4.904 h 1.587 l 0.17,0.992 H 216 v 1.927 l -1.332,-0.141 -0.029,-1.786 h -1.133 v -0.992 h 1.133 v -4.904 c 0,-0.681 0.17,-1.191 0.482,-1.531 0.369,-0.369 0.851,-0.567 1.503,-0.567 0.595,0 1.162,0.17 1.7,0.51 l -0.538,0.879 c -0.142,-0.085 -0.312,-0.17 -0.482,-0.227 z"
         style="fill:#003754;fill-opacity:1;fill-rule:evenodd;stroke:none"
         transform="matrix(1.3333333,0,0,-1.3333333,0,720)" />
      <path
         id="path23"
         d="m 223.313,489.742 c -0.482,-0.879 -1.105,-1.333 -1.757,-1.333 -0.369,0 -0.652,0.142 -0.794,0.341 -0.17,0.198 -0.283,0.538 -0.255,0.992 v 5.641 h -1.332 l -0.057,-5.755 c 0,-0.68 0.17,-1.247 0.539,-1.644 0.368,-0.397 0.85,-0.595 1.502,-0.595 0.935,-0.028 1.672,0.425 2.239,1.361 l 0.057,-1.191 h 1.191 l 0.028,7.767 h -1.361 v -5.584 z"
         style="fill:#003754;fill-opacity:1;fill-rule:evenodd;stroke:none"
         transform="matrix(1.3333333,0,0,-1.3333333,0,720)" />
      <path
         id="path24"
         d="m 229.55,488.494 c -0.142,-0.028 -0.284,-0.085 -0.454,-0.085 -0.595,0 -0.879,0.369 -0.879,1.049 l 0.029,4.848 h 1.615 l 0.114,1.02 h -1.729 v 1.956 l -1.333,-0.17 v -1.786 h -1.133 l -0.057,-0.992 h 1.134 v -4.876 c 0,-0.68 0.17,-1.19 0.538,-1.559 0.312,-0.397 0.822,-0.538 1.446,-0.538 0.624,0 1.19,0.141 1.701,0.51 l -0.511,0.879 c -0.17,-0.142 -0.34,-0.199 -0.481,-0.256 z"
         style="fill:#003754;fill-opacity:1;fill-rule:evenodd;stroke:none"
         transform="matrix(1.3333333,0,0,-1.3333333,0,720)" />
      <path
         id="path25"
         d="m 237.061,491.641 c 0,1.219 -0.226,2.183 -0.708,2.863 -0.539,0.624 -1.276,0.992 -2.24,0.992 -0.963,0 -1.7,-0.368 -2.267,-1.105 -0.511,-0.766 -0.794,-1.758 -0.794,-3.034 0,-1.275 0.227,-2.267 0.794,-2.976 0.567,-0.709 1.389,-1.077 2.437,-1.077 0.936,0 1.786,0.312 2.552,0.992 l -0.624,0.765 c -0.312,-0.255 -0.595,-0.396 -0.907,-0.51 -0.284,-0.142 -0.624,-0.17 -0.992,-0.17 -0.567,0 -0.992,0.199 -1.332,0.595 -0.312,0.397 -0.511,1.078 -0.567,1.985 l 4.62,-0.029 c 0.028,0.284 0.028,0.511 0.028,0.709 z m -1.275,0.227 h -3.373 c 0.056,0.935 0.255,1.587 0.538,1.984 0.284,0.454 0.68,0.652 1.162,0.652 1.134,0 1.673,-0.85 1.673,-2.466 v -0.17 z"
         style="fill:#003754;fill-opacity:1;fill-rule:evenodd;stroke:none"
         transform="matrix(1.3333333,0,0,-1.3333333,0,720)" />
      <path
         id="path26"
         d="m 152.872,480.614 c -1.02,0 -1.785,-0.368 -2.381,-1.077 -0.567,-0.737 -0.85,-1.757 -0.85,-3.033 0,-1.276 0.283,-2.296 0.85,-3.005 0.511,-0.708 1.333,-1.077 2.353,-1.077 0.992,0 1.814,0.369 2.381,1.077 0.567,0.737 0.851,1.729 0.851,3.005 0.028,1.304 -0.256,2.296 -0.822,3.033 -0.567,0.652 -1.333,1.02 -2.382,1.077 z m -0.028,-7.171 c -1.219,0 -1.786,1.048 -1.786,3.061 0,1.049 0.142,1.786 0.482,2.268 0.284,0.51 0.766,0.765 1.332,0.765 0.596,0 1.049,-0.283 1.333,-0.765 0.34,-0.482 0.453,-1.219 0.453,-2.268 0,-2.013 -0.623,-3.061 -1.814,-3.061 z"
         style="fill:#003754;fill-opacity:1;fill-rule:evenodd;stroke:none"
         transform="matrix(1.3333333,0,0,-1.3333333,0,720)" />
      <path
         id="path27"
         d="m 158.542,483.052 c -0.397,-0.397 -0.596,-0.907 -0.596,-1.531 v -1.162 h -1.218 v -0.992 h 1.162 v -6.775 h 1.332 l 0.057,6.775 1.615,-0.028 0.171,1.02 h -1.786 v 1.162 c 0,0.34 0.085,0.624 0.283,0.822 0.142,0.17 0.425,0.284 0.794,0.284 0.425,-0.029 0.85,-0.114 1.275,-0.312 l 0.397,0.907 c -0.567,0.284 -1.19,0.425 -1.785,0.425 -0.737,0 -1.304,-0.198 -1.701,-0.595 z"
         style="fill:#003754;fill-opacity:1;fill-rule:evenodd;stroke:none"
         transform="matrix(1.3333333,0,0,-1.3333333,0,720)" />
      <path
         id="path28"
         d="m 172.233,472.507 0.028,10.205 h -1.36 l -0.057,-4.309 -3.742,0.057 0.029,4.28 h -1.418 l -0.056,-10.205 h 1.389 l 0.056,4.763 h 3.742 v -4.763 z"
         style="fill:#003754;fill-opacity:1;fill-rule:evenodd;stroke:none"
         transform="matrix(1.3333333,0,0,-1.3333333,0,720)" />
      <path
         id="path29"
         d="m 174.529,479.367 c -0.51,-0.765 -0.794,-1.758 -0.794,-3.005 -0.056,-1.275 0.227,-2.268 0.794,-2.976 0.567,-0.737 1.389,-1.077 2.438,-1.077 0.935,0 1.786,0.311 2.523,0.935 l -0.567,0.794 c -0.34,-0.227 -0.652,-0.397 -0.936,-0.51 -0.283,-0.114 -0.623,-0.142 -0.963,-0.142 -0.567,0 -1.021,0.198 -1.361,0.595 -0.312,0.397 -0.51,1.049 -0.567,1.984 l 4.621,-0.056 c 0.056,0.283 0.056,0.482 0.056,0.708 0,1.248 -0.255,2.183 -0.765,2.835 -0.51,0.68 -1.219,1.02 -2.211,1.02 -0.964,0 -1.701,-0.34 -2.268,-1.105 z m 1.106,-0.51 c 0.283,0.397 0.68,0.623 1.162,0.623 1.105,-0.028 1.672,-0.822 1.672,-2.466 v -0.142 h -3.373 c 0.057,0.908 0.255,1.588 0.539,1.985 z"
         style="fill:#003754;fill-opacity:1;fill-rule:evenodd;stroke:none"
         transform="matrix(1.3333333,0,0,-1.3333333,0,720)" />
      <path
         id="path30"
         d="m 185.301,473.443 c 0.085,-0.341 0.255,-0.624 0.51,-0.823 0.198,-0.17 0.51,-0.283 0.879,-0.368 l 0.283,0.935 c -0.17,0.057 -0.312,0.199 -0.397,0.341 -0.085,0.17 -0.141,0.396 -0.141,0.708 v 3.657 c 0,1.701 -0.851,2.551 -2.552,2.551 -0.765,0 -1.615,-0.17 -2.494,-0.51 l 0.368,-0.936 c 0.709,0.256 1.361,0.397 1.9,0.397 0.51,0 0.878,-0.113 1.134,-0.397 0.198,-0.226 0.311,-0.623 0.311,-1.133 v -0.681 h -1.048 c -1.021,0 -1.786,-0.198 -2.353,-0.623 -0.567,-0.454 -0.851,-1.078 -0.851,-1.928 0,-0.709 0.199,-1.247 0.624,-1.701 0.397,-0.425 0.964,-0.68 1.701,-0.68 0.879,0 1.616,0.397 2.126,1.191 z m -1.814,-0.142 c -0.397,0 -0.737,0.113 -0.936,0.34 -0.198,0.255 -0.312,0.595 -0.312,1.077 0.029,1.077 0.681,1.644 1.985,1.588 h 0.878 v -1.815 c -0.396,-0.793 -0.935,-1.19 -1.615,-1.19 z"
         style="fill:#003754;fill-opacity:1;fill-rule:evenodd;stroke:none"
         transform="matrix(1.3333333,0,0,-1.3333333,0,720)" />
      <path
         id="path31"
         d="m 189.921,472.252 c 0.34,0 0.709,0.085 1.021,0.255 l -0.312,0.907 c -0.17,-0.028 -0.284,-0.085 -0.454,-0.085 -0.283,0 -0.453,0.199 -0.453,0.595 l 0.057,9.61 -1.389,-0.142 -0.029,-9.496 c 0,-0.51 0.114,-0.907 0.397,-1.19 0.284,-0.312 0.68,-0.454 1.162,-0.454 z"
         style="fill:#003754;fill-opacity:1;fill-rule:evenodd;stroke:none"
         transform="matrix(1.3333333,0,0,-1.3333333,0,720)" />
      <path
         id="path32"
         d="m 192.189,474.321 c 0,-0.68 0.17,-1.19 0.539,-1.53 0.311,-0.369 0.793,-0.567 1.445,-0.567 0.624,0 1.191,0.198 1.701,0.51 l -0.51,0.879 c -0.17,-0.085 -0.34,-0.17 -0.482,-0.199 -0.142,-0.085 -0.284,-0.085 -0.454,-0.085 -0.623,0 -0.907,0.312 -0.907,0.992 l 0.057,4.876 h 1.587 l 0.142,0.992 h -1.729 v 2.013 l -1.332,-0.171 -0.057,-1.842 -1.134,0.057 v -1.049 h 1.134 v -4.876 z"
         style="fill:#003754;fill-opacity:1;fill-rule:evenodd;stroke:none"
         transform="matrix(1.3333333,0,0,-1.3333333,0,720)" />
      <path
         id="path33"
         d="m 200.353,480.359 c -0.51,0.057 -0.907,-0.085 -1.219,-0.312 -0.369,-0.198 -0.709,-0.51 -0.992,-0.964 v 4.423 l -1.361,-0.171 -0.057,-10.913 h 1.389 v 5.528 c 0.567,0.907 1.163,1.389 1.815,1.389 0.368,0 0.623,-0.142 0.765,-0.341 0.227,-0.226 0.283,-0.595 0.283,-1.105 l -0.028,-5.499 h 1.389 v 5.669 c 0.028,0.709 -0.17,1.276 -0.539,1.701 -0.311,0.397 -0.85,0.595 -1.445,0.595 z"
         style="fill:#003754;fill-opacity:1;fill-rule:evenodd;stroke:none"
         transform="matrix(1.3333333,0,0,-1.3333333,0,720)" />
      <path
         id="path34"
         d="m 155.707,459.78 c -0.822,0.396 -1.616,0.595 -2.353,0.595 -0.878,0 -1.615,-0.227 -2.211,-0.737 -0.623,-0.51 -1.02,-1.191 -1.304,-1.984 -0.283,-0.766 -0.396,-1.56 -0.396,-2.353 0,-0.822 0.141,-1.503 0.566,-1.984 0.341,-0.511 0.879,-0.766 1.56,-0.766 0.453,0 0.822,0.142 1.133,0.34 0.341,0.199 0.652,0.511 0.936,0.879 0.056,-0.368 0.17,-0.652 0.368,-0.85 0.199,-0.199 0.482,-0.312 0.851,-0.369 l 0.397,0.879 c -0.142,0.057 -0.284,0.142 -0.312,0.255 -0.057,0.085 -0.085,0.198 -0.085,0.34 0,0.085 0,0.199 0.028,0.397 l 0.822,5.358 z m -1.984,-4.876 c -0.312,-0.425 -0.652,-0.737 -0.936,-0.992 -0.283,-0.227 -0.567,-0.34 -0.935,-0.34 -0.765,0 -1.134,0.595 -1.134,1.7 0,0.681 0.142,1.304 0.284,1.928 0.198,0.652 0.481,1.162 0.907,1.587 0.368,0.397 0.85,0.596 1.417,0.596 0.368,0 0.709,-0.029 0.992,-0.199 l -0.595,-4.28 z"
         style="fill:#003754;fill-opacity:1;fill-rule:evenodd;stroke:none"
         transform="matrix(1.3333333,0,0,-1.3333333,0,720)" />
      <path
         id="path35"
         d="m 159.704,462.047 -0.992,-0.113 -0.482,-1.701 h -1.191 l -0.17,-0.992 h 1.191 l -0.68,-4.649 c -0.057,-0.198 -0.057,-0.368 -0.057,-0.397 0,-0.51 0.17,-0.907 0.453,-1.247 0.284,-0.255 0.681,-0.425 1.219,-0.425 0.567,0 1.077,0.198 1.559,0.51 l -0.34,0.85 c -0.227,-0.113 -0.425,-0.17 -0.538,-0.255 -0.17,-0.028 -0.312,-0.028 -0.482,-0.028 -0.199,0 -0.369,0.028 -0.454,0.17 -0.113,0.113 -0.17,0.255 -0.17,0.454 0,0.141 0,0.198 0,0.283 l 0.737,4.734 h 1.474 l 0.284,0.935 -1.588,0.057 0.227,1.814 z"
         style="fill:#003754;fill-opacity:1;fill-rule:evenodd;stroke:none"
         transform="matrix(1.3333333,0,0,-1.3333333,0,720)" />
      <path
         id="path36"
         d="m 167.046,460.772 c 0.482,0.538 1.105,0.793 1.871,0.793 0.283,0 0.566,-0.028 0.793,-0.141 0.284,-0.085 0.539,-0.284 0.822,-0.482 l 0.766,0.68 c -0.312,0.34 -0.681,0.595 -1.078,0.765 -0.368,0.199 -0.822,0.256 -1.36,0.256 -0.992,0 -1.843,-0.312 -2.551,-0.936 -0.709,-0.652 -1.219,-1.474 -1.531,-2.438 -0.369,-0.992 -0.539,-1.984 -0.539,-2.976 0,-1.191 0.284,-2.126 0.851,-2.778 0.538,-0.68 1.304,-0.992 2.239,-0.992 1.021,0 1.899,0.312 2.75,1.049 l -0.567,0.822 c -0.369,-0.227 -0.709,-0.425 -0.992,-0.596 -0.284,-0.113 -0.652,-0.198 -1.021,-0.198 -0.623,0 -1.049,0.227 -1.389,0.624 -0.312,0.453 -0.482,1.077 -0.482,1.956 0,0.878 0.114,1.7 0.312,2.494 0.255,0.85 0.567,1.559 1.106,2.098 z"
         style="fill:#003754;fill-opacity:1;fill-rule:evenodd;stroke:none"
         transform="matrix(1.3333333,0,0,-1.3333333,0,720)" />
      <path
         id="path37"
         d="m 175.38,460.318 c -0.851,0.028 -1.56,-0.482 -2.211,-1.531 l 0.651,4.507 -1.275,-0.113 -1.559,-10.488 1.275,-0.057 0.652,4.621 c 0.766,1.332 1.474,2.012 2.155,2.012 0.482,0 0.737,-0.283 0.737,-0.878 0,-0.057 0,-0.199 -0.057,-0.397 l -0.765,-5.358 h 1.247 l 0.822,5.358 c 0,0.141 0,0.283 0,0.482 0.028,0.567 -0.113,1.048 -0.397,1.36 -0.34,0.312 -0.737,0.482 -1.275,0.482 z"
         style="fill:#003754;fill-opacity:1;fill-rule:evenodd;stroke:none"
         transform="matrix(1.3333333,0,0,-1.3333333,0,720)" />
      <path
         id="path38"
         d="m 184.252,459.666 c -0.794,0.397 -1.616,0.595 -2.353,0.595 -0.879,0 -1.616,-0.226 -2.211,-0.737 -0.623,-0.538 -1.02,-1.19 -1.304,-1.955 -0.283,-0.794 -0.397,-1.588 -0.397,-2.382 0,-0.822 0.17,-1.502 0.567,-1.984 0.369,-0.482 0.936,-0.765 1.616,-0.765 0.397,0 0.765,0.113 1.106,0.312 0.311,0.198 0.623,0.538 0.963,0.935 0.029,-0.397 0.114,-0.68 0.312,-0.879 0.199,-0.198 0.482,-0.312 0.851,-0.368 l 0.425,0.879 c -0.17,0.056 -0.255,0.113 -0.34,0.255 -0.029,0.056 -0.085,0.198 -0.085,0.34 0,0.085 0,0.198 0.056,0.397 l 0.794,5.357 z m -1.984,-4.875 c -0.312,-0.426 -0.652,-0.766 -0.936,-0.993 -0.226,-0.226 -0.567,-0.368 -0.907,-0.368 -0.794,0 -1.134,0.595 -1.134,1.757 0,0.624 0.114,1.276 0.284,1.9 0.198,0.652 0.482,1.162 0.879,1.587 0.368,0.397 0.85,0.595 1.445,0.595 0.34,0 0.709,-0.028 0.992,-0.198 l -0.623,-4.28 z"
         style="fill:#003754;fill-opacity:1;fill-rule:evenodd;stroke:none"
         transform="matrix(1.3333333,0,0,-1.3333333,0,720)" />
      <path
         id="path39"
         d="m 189.354,460.261 c -0.397,0 -0.793,-0.141 -1.134,-0.425 -0.311,-0.255 -0.651,-0.652 -0.878,-1.19 l 0.085,1.474 h -1.106 l -1.077,-7.512 h 1.247 l 0.596,3.997 c 0.255,0.793 0.567,1.389 0.907,1.786 0.312,0.453 0.68,0.652 1.077,0.652 0.198,0 0.368,-0.057 0.567,-0.086 l 0.425,1.191 c -0.255,0.085 -0.454,0.113 -0.709,0.113 z"
         style="fill:#003754;fill-opacity:1;fill-rule:evenodd;stroke:none"
         transform="matrix(1.3333333,0,0,-1.3333333,0,720)" />
      <path
         id="path40"
         d="m 192.161,463.635 c -0.284,0 -0.482,-0.057 -0.681,-0.255 -0.226,-0.171 -0.283,-0.397 -0.283,-0.681 0,-0.198 0.057,-0.397 0.198,-0.567 0.142,-0.113 0.369,-0.198 0.596,-0.198 0.255,0 0.481,0.085 0.652,0.283 0.198,0.17 0.283,0.397 0.283,0.681 0,0.198 -0.085,0.396 -0.198,0.538 -0.171,0.142 -0.369,0.199 -0.567,0.199 z"
         style="fill:#003754;fill-opacity:1;fill-rule:evenodd;stroke:none"
         transform="matrix(1.3333333,0,0,-1.3333333,0,720)" />
      <path
         id="path41"
         d="m 189.978,452.608 1.247,-0.057 1.134,7.512 h -1.304 z"
         style="fill:#003754;fill-opacity:1;fill-rule:evenodd;stroke:none"
         transform="matrix(1.3333333,0,0,-1.3333333,0,720)" />
      <path
         id="path42"
         d="m 196.101,461.934 -1.021,-0.114 -0.482,-1.757 h -1.19 l -0.17,-0.992 h 1.19 l -0.68,-4.649 c -0.057,-0.198 -0.057,-0.312 -0.057,-0.397 0,-0.51 0.17,-0.907 0.454,-1.19 0.283,-0.312 0.68,-0.426 1.219,-0.426 0.567,0 1.077,0.142 1.616,0.482 l -0.397,0.822 c -0.199,-0.085 -0.369,-0.141 -0.539,-0.198 -0.17,-0.085 -0.312,-0.085 -0.482,-0.085 -0.198,0 -0.368,0.057 -0.453,0.17 -0.114,0.113 -0.142,0.283 -0.142,0.482 0,0.113 0,0.227 0.028,0.283 l 0.681,4.706 h 1.474 l 0.283,0.992 h -1.587 l 0.255,1.871 z"
         style="fill:#003754;fill-opacity:1;fill-rule:evenodd;stroke:none"
         transform="matrix(1.3333333,0,0,-1.3333333,0,720)" />
      <path
         id="path43"
         d="m 202.677,463.89 -2.778,-1.588 0.312,-0.652 2.92,1.191 z"
         style="fill:#003754;fill-opacity:1;fill-rule:evenodd;stroke:none"
         transform="matrix(1.3333333,0,0,-1.3333333,0,720)" />
      <path
         id="path44"
         d="m 201.231,460.176 c -0.822,0 -1.53,-0.226 -2.097,-0.708 -0.567,-0.511 -0.992,-1.134 -1.219,-1.899 -0.284,-0.766 -0.397,-1.503 -0.397,-2.297 0,-0.907 0.199,-1.644 0.624,-2.126 0.51,-0.51 1.105,-0.793 1.956,-0.793 0.85,0 1.7,0.34 2.522,0.935 l -0.566,0.794 c -0.341,-0.199 -0.624,-0.397 -0.936,-0.482 -0.283,-0.113 -0.567,-0.17 -0.907,-0.17 -0.935,0 -1.417,0.595 -1.417,1.842 v 0.085 c 1.474,0.142 2.608,0.454 3.401,0.908 0.822,0.396 1.219,1.105 1.219,2.069 0,0.51 -0.17,0.992 -0.567,1.332 -0.368,0.369 -0.878,0.51 -1.616,0.51 z m 0.114,-3.231 c -0.51,-0.284 -1.332,-0.482 -2.466,-0.652 0.113,0.85 0.368,1.502 0.765,2.069 0.369,0.567 0.907,0.822 1.559,0.822 0.312,0 0.567,-0.056 0.709,-0.227 0.17,-0.198 0.198,-0.396 0.198,-0.68 0,-0.595 -0.227,-1.077 -0.765,-1.332 z"
         style="fill:#003754;fill-opacity:1;fill-rule:evenodd;stroke:none"
         transform="matrix(1.3333333,0,0,-1.3333333,0,720)" />
    </g>
    <g
       opacity="0.8"
       id="g134">
      <g
         clip-path="url(#clipPath46)"
         id="g133">
        <path
           d="m 0,484.129 h 960.009 v -126 H 0 Z"
           style="fill:#ffffff;fill-opacity:1;fill-rule:evenodd;stroke:none"
           transform="matrix(1.3333333,0,0,-1.3333333,0,720)"
           clip-path="url(#clipPath45)"
           id="path47" />
        <path
           d="m 11.027,358.129 v 126 h 948.982 v -126 z"
           style="fill:#fffdfd;fill-opacity:1;fill-rule:evenodd;stroke:none"
           transform="matrix(1.3333333,0,0,-1.3333333,0,720)"
           clip-path="url(#clipPath45)"
           id="path48" />
        <path
           d="m 22.082,358.129 v 126 h 937.927 v -126 z"
           style="fill:#fffbfb;fill-opacity:1;fill-rule:evenodd;stroke:none"
           transform="matrix(1.3333333,0,0,-1.3333333,0,720)"
           clip-path="url(#clipPath45)"
           id="path49" />
        <path
           d="m 33.109,358.129 v 126 h 926.9 v -126 z"
           style="fill:#fef9f9;fill-opacity:1;fill-rule:evenodd;stroke:none"
           transform="matrix(1.3333333,0,0,-1.3333333,0,720)"
           clip-path="url(#clipPath45)"
           id="path50" />
        <path
           d="m 44.135,358.129 v 126 h 915.874 v -126 z"
           style="fill:#fef7f7;fill-opacity:1;fill-rule:evenodd;stroke:none"
           transform="matrix(1.3333333,0,0,-1.3333333,0,720)"
           clip-path="url(#clipPath45)"
           id="path51" />
        <path
           d="m 55.162,358.129 v 126 h 904.847 v -126 z"
           style="fill:#fef5f5;fill-opacity:1;fill-rule:evenodd;stroke:none"
           transform="matrix(1.3333333,0,0,-1.3333333,0,720)"
           clip-path="url(#clipPath45)"
           id="path52" />
        <path
           d="m 66.217,358.129 v 126 h 893.792 v -126 z"
           style="fill:#fef3f3;fill-opacity:1;fill-rule:evenodd;stroke:none"
           transform="matrix(1.3333333,0,0,-1.3333333,0,720)"
           clip-path="url(#clipPath45)"
           id="path53" />
        <path
           d="m 77.244,358.129 v 126 h 882.765 v -126 z"
           style="fill:#fdf1f1;fill-opacity:1;fill-rule:evenodd;stroke:none"
           transform="matrix(1.3333333,0,0,-1.3333333,0,720)"
           clip-path="url(#clipPath45)"
           id="path54" />
        <path
           d="m 88.271,358.129 v 126 h 871.738 v -126 z"
           style="fill:#fdefef;fill-opacity:1;fill-rule:evenodd;stroke:none"
           transform="matrix(1.3333333,0,0,-1.3333333,0,720)"
           clip-path="url(#clipPath45)"
           id="path55" />
        <path
           d="m 99.298,358.129 v 126 h 860.711 v -126 z"
           style="fill:#fdeded;fill-opacity:1;fill-rule:evenodd;stroke:none"
           transform="matrix(1.3333333,0,0,-1.3333333,0,720)"
           clip-path="url(#clipPath45)"
           id="path56" />
        <path
           d="m 110.353,358.129 v 126 h 849.656 v -126 z"
           style="fill:#fdebeb;fill-opacity:1;fill-rule:evenodd;stroke:none"
           transform="matrix(1.3333333,0,0,-1.3333333,0,720)"
           clip-path="url(#clipPath45)"
           id="path57" />
        <path
           d="m 121.38,358.129 v 126 h 838.629 v -126 z"
           style="fill:#fce9e9;fill-opacity:1;fill-rule:evenodd;stroke:none"
           transform="matrix(1.3333333,0,0,-1.3333333,0,720)"
           clip-path="url(#clipPath45)"
           id="path58" />
        <path
           d="m 132.406,358.129 v 126 h 827.603 v -126 z"
           style="fill:#fce7e7;fill-opacity:1;fill-rule:evenodd;stroke:none"
           transform="matrix(1.3333333,0,0,-1.3333333,0,720)"
           clip-path="url(#clipPath45)"
           id="path59" />
        <path
           d="m 143.433,358.129 v 126 h 816.576 v -126 z"
           style="fill:#fce5e5;fill-opacity:1;fill-rule:evenodd;stroke:none"
           transform="matrix(1.3333333,0,0,-1.3333333,0,720)"
           clip-path="url(#clipPath45)"
           id="path60" />
        <path
           d="m 154.488,358.129 v 126 h 805.521 v -126 z"
           style="fill:#fce3e3;fill-opacity:1;fill-rule:evenodd;stroke:none"
           transform="matrix(1.3333333,0,0,-1.3333333,0,720)"
           clip-path="url(#clipPath45)"
           id="path61" />
        <path
           d="m 165.515,358.129 v 126 h 794.494 v -126 z"
           style="fill:#fbe1e1;fill-opacity:1;fill-rule:evenodd;stroke:none"
           transform="matrix(1.3333333,0,0,-1.3333333,0,720)"
           clip-path="url(#clipPath45)"
           id="path62" />
        <path
           d="m 176.542,358.129 v 126 h 783.467 v -126 z"
           style="fill:#fbdfdf;fill-opacity:1;fill-rule:evenodd;stroke:none"
           transform="matrix(1.3333333,0,0,-1.3333333,0,720)"
           clip-path="url(#clipPath45)"
           id="path63" />
        <path
           d="m 187.569,358.129 v 126 h 772.44 v -126 z"
           style="fill:#fbdddd;fill-opacity:1;fill-rule:evenodd;stroke:none"
           transform="matrix(1.3333333,0,0,-1.3333333,0,720)"
           clip-path="url(#clipPath45)"
           id="path64" />
        <path
           d="m 198.624,358.129 v 126 h 761.385 v -126 z"
           style="fill:#fbdbdb;fill-opacity:1;fill-rule:evenodd;stroke:none"
           transform="matrix(1.3333333,0,0,-1.3333333,0,720)"
           clip-path="url(#clipPath45)"
           id="path65" />
        <path
           d="m 209.65,358.129 v 126 h 750.359 v -126 z"
           style="fill:#fad9d9;fill-opacity:1;fill-rule:evenodd;stroke:none"
           transform="matrix(1.3333333,0,0,-1.3333333,0,720)"
           clip-path="url(#clipPath45)"
           id="path66" />
        <path
           d="m 220.677,358.129 v 126 h 739.332 v -126 z"
           style="fill:#fad7d7;fill-opacity:1;fill-rule:evenodd;stroke:none"
           transform="matrix(1.3333333,0,0,-1.3333333,0,720)"
           clip-path="url(#clipPath45)"
           id="path67" />
        <path
           d="m 231.732,358.129 v 126 h 728.277 v -126 z"
           style="fill:#fad5d5;fill-opacity:1;fill-rule:evenodd;stroke:none"
           transform="matrix(1.3333333,0,0,-1.3333333,0,720)"
           clip-path="url(#clipPath45)"
           id="path68" />
        <path
           d="m 242.759,358.129 v 126 h 717.25 v -126 z"
           style="fill:#fad3d2;fill-opacity:1;fill-rule:evenodd;stroke:none"
           transform="matrix(1.3333333,0,0,-1.3333333,0,720)"
           clip-path="url(#clipPath45)"
           id="path69" />
        <path
           d="m 253.786,358.129 v 126 h 706.223 v -126 z"
           style="fill:#f9d1d0;fill-opacity:1;fill-rule:evenodd;stroke:none"
           transform="matrix(1.3333333,0,0,-1.3333333,0,720)"
           clip-path="url(#clipPath45)"
           id="path70" />
        <path
           d="m 264.813,358.129 v 126 h 695.196 v -126 z"
           style="fill:#f9cfce;fill-opacity:1;fill-rule:evenodd;stroke:none"
           transform="matrix(1.3333333,0,0,-1.3333333,0,720)"
           clip-path="url(#clipPath45)"
           id="path71" />
        <path
           d="m 275.868,358.129 v 126 h 684.141 v -126 z"
           style="fill:#f9cdcc;fill-opacity:1;fill-rule:evenodd;stroke:none"
           transform="matrix(1.3333333,0,0,-1.3333333,0,720)"
           clip-path="url(#clipPath45)"
           id="path72" />
        <path
           d="m 286.894,358.129 v 126 h 673.115 v -126 z"
           style="fill:#f9cbca;fill-opacity:1;fill-rule:evenodd;stroke:none"
           transform="matrix(1.3333333,0,0,-1.3333333,0,720)"
           clip-path="url(#clipPath45)"
           id="path73" />
        <path
           d="m 297.921,358.129 v 126 h 662.088 v -126 z"
           style="fill:#f8c9c8;fill-opacity:1;fill-rule:evenodd;stroke:none"
           transform="matrix(1.3333333,0,0,-1.3333333,0,720)"
           clip-path="url(#clipPath45)"
           id="path74" />
        <path
           d="m 308.948,358.129 v 126 h 651.061 v -126 z"
           style="fill:#f8c7c6;fill-opacity:1;fill-rule:evenodd;stroke:none"
           transform="matrix(1.3333333,0,0,-1.3333333,0,720)"
           clip-path="url(#clipPath45)"
           id="path75" />
        <path
           d="m 320.003,358.129 v 126 h 640.006 v -126 z"
           style="fill:#f8c5c4;fill-opacity:1;fill-rule:evenodd;stroke:none"
           transform="matrix(1.3333333,0,0,-1.3333333,0,720)"
           clip-path="url(#clipPath45)"
           id="path76" />
        <path
           d="m 331.03,358.129 v 126 h 628.979 v -126 z"
           style="fill:#f8c3c2;fill-opacity:1;fill-rule:evenodd;stroke:none"
           transform="matrix(1.3333333,0,0,-1.3333333,0,720)"
           clip-path="url(#clipPath45)"
           id="path77" />
        <path
           d="m 342.057,358.129 v 126 h 617.952 v -126 z"
           style="fill:#f7c1c0;fill-opacity:1;fill-rule:evenodd;stroke:none"
           transform="matrix(1.3333333,0,0,-1.3333333,0,720)"
           clip-path="url(#clipPath45)"
           id="path78" />
        <path
           d="m 353.083,358.129 v 126 h 606.926 v -126 z"
           style="fill:#f7bfbe;fill-opacity:1;fill-rule:evenodd;stroke:none"
           transform="matrix(1.3333333,0,0,-1.3333333,0,720)"
           clip-path="url(#clipPath45)"
           id="path79" />
        <path
           d="m 364.139,358.129 v 126 h 595.87 v -126 z"
           style="fill:#f7bdbc;fill-opacity:1;fill-rule:evenodd;stroke:none"
           transform="matrix(1.3333333,0,0,-1.3333333,0,720)"
           clip-path="url(#clipPath45)"
           id="path80" />
        <path
           d="m 375.165,358.129 v 126 h 584.844 v -126 z"
           style="fill:#f7bbba;fill-opacity:1;fill-rule:evenodd;stroke:none"
           transform="matrix(1.3333333,0,0,-1.3333333,0,720)"
           clip-path="url(#clipPath45)"
           id="path81" />
        <path
           d="m 386.192,358.129 v 126 h 573.817 v -126 z"
           style="fill:#f6b9b8;fill-opacity:1;fill-rule:evenodd;stroke:none"
           transform="matrix(1.3333333,0,0,-1.3333333,0,720)"
           clip-path="url(#clipPath45)"
           id="path82" />
        <path
           d="m 397.247,358.129 v 126 h 562.762 v -126 z"
           style="fill:#f6b7b6;fill-opacity:1;fill-rule:evenodd;stroke:none"
           transform="matrix(1.3333333,0,0,-1.3333333,0,720)"
           clip-path="url(#clipPath45)"
           id="path83" />
        <path
           d="m 408.274,358.129 v 126 h 551.735 v -126 z"
           style="fill:#f6b5b4;fill-opacity:1;fill-rule:evenodd;stroke:none"
           transform="matrix(1.3333333,0,0,-1.3333333,0,720)"
           clip-path="url(#clipPath45)"
           id="path84" />
        <path
           d="m 419.301,358.129 v 126 h 540.708 v -126 z"
           style="fill:#f6b3b2;fill-opacity:1;fill-rule:evenodd;stroke:none"
           transform="matrix(1.3333333,0,0,-1.3333333,0,720)"
           clip-path="url(#clipPath45)"
           id="path85" />
        <path
           d="m 430.328,358.129 v 126 h 529.681 v -126 z"
           style="fill:#f5b1b0;fill-opacity:1;fill-rule:evenodd;stroke:none"
           transform="matrix(1.3333333,0,0,-1.3333333,0,720)"
           clip-path="url(#clipPath45)"
           id="path86" />
        <path
           d="m 441.383,358.129 v 126 h 518.626 v -126 z"
           style="fill:#f5afae;fill-opacity:1;fill-rule:evenodd;stroke:none"
           transform="matrix(1.3333333,0,0,-1.3333333,0,720)"
           clip-path="url(#clipPath45)"
           id="path87" />
        <path
           d="m 452.409,358.129 v 126 h 507.6 v -126 z"
           style="fill:#f5adac;fill-opacity:1;fill-rule:evenodd;stroke:none"
           transform="matrix(1.3333333,0,0,-1.3333333,0,720)"
           clip-path="url(#clipPath45)"
           id="path88" />
        <path
           d="m 463.436,358.129 v 126 h 496.573 v -126 z"
           style="fill:#f5abaa;fill-opacity:1;fill-rule:evenodd;stroke:none"
           transform="matrix(1.3333333,0,0,-1.3333333,0,720)"
           clip-path="url(#clipPath45)"
           id="path89" />
        <path
           d="m 474.463,358.129 v 126 h 485.546 v -126 z"
           style="fill:#f4aaa8;fill-opacity:1;fill-rule:evenodd;stroke:none"
           transform="matrix(1.3333333,0,0,-1.3333333,0,720)"
           clip-path="url(#clipPath45)"
           id="path90" />
        <path
           d="m 485.518,358.129 v 126 h 474.491 v -126 z"
           style="fill:#f4a8a6;fill-opacity:1;fill-rule:evenodd;stroke:none"
           transform="matrix(1.3333333,0,0,-1.3333333,0,720)"
           clip-path="url(#clipPath45)"
           id="path91" />
        <path
           d="m 496.545,358.129 v 126 h 463.464 v -126 z"
           style="fill:#f4a6a4;fill-opacity:1;fill-rule:evenodd;stroke:none"
           transform="matrix(1.3333333,0,0,-1.3333333,0,720)"
           clip-path="url(#clipPath45)"
           id="path92" />
        <path
           d="m 507.572,358.129 v 126 h 452.437 v -126 z"
           style="fill:#f4a4a2;fill-opacity:1;fill-rule:evenodd;stroke:none"
           transform="matrix(1.3333333,0,0,-1.3333333,0,720)"
           clip-path="url(#clipPath45)"
           id="path93" />
        <path
           d="m 518.598,358.129 v 126 h 441.411 v -126 z"
           style="fill:#f4a2a0;fill-opacity:1;fill-rule:evenodd;stroke:none"
           transform="matrix(1.3333333,0,0,-1.3333333,0,720)"
           clip-path="url(#clipPath45)"
           id="path94" />
        <path
           d="m 529.654,358.129 v 126 h 430.355 v -126 z"
           style="fill:#f3a09e;fill-opacity:1;fill-rule:evenodd;stroke:none"
           transform="matrix(1.3333333,0,0,-1.3333333,0,720)"
           clip-path="url(#clipPath45)"
           id="path95" />
        <path
           d="m 540.68,358.129 v 126 h 419.329 v -126 z"
           style="fill:#f39e9c;fill-opacity:1;fill-rule:evenodd;stroke:none"
           transform="matrix(1.3333333,0,0,-1.3333333,0,720)"
           clip-path="url(#clipPath45)"
           id="path96" />
        <path
           d="m 551.707,358.129 v 126 h 408.302 v -126 z"
           style="fill:#f39c9a;fill-opacity:1;fill-rule:evenodd;stroke:none"
           transform="matrix(1.3333333,0,0,-1.3333333,0,720)"
           clip-path="url(#clipPath45)"
           id="path97" />
        <path
           d="m 562.734,358.129 v 126 h 397.275 v -126 z"
           style="fill:#f39a98;fill-opacity:1;fill-rule:evenodd;stroke:none"
           transform="matrix(1.3333333,0,0,-1.3333333,0,720)"
           clip-path="url(#clipPath45)"
           id="path98" />
        <path
           d="m 573.789,358.129 v 126 h 386.22 v -126 z"
           style="fill:#f29896;fill-opacity:1;fill-rule:evenodd;stroke:none"
           transform="matrix(1.3333333,0,0,-1.3333333,0,720)"
           clip-path="url(#clipPath45)"
           id="path99" />
        <path
           d="m 584.816,358.129 v 126 h 375.193 v -126 z"
           style="fill:#f29694;fill-opacity:1;fill-rule:evenodd;stroke:none"
           transform="matrix(1.3333333,0,0,-1.3333333,0,720)"
           clip-path="url(#clipPath45)"
           id="path100" />
        <path
           d="m 595.843,358.129 v 126 h 364.166 v -126 z"
           style="fill:#f29492;fill-opacity:1;fill-rule:evenodd;stroke:none"
           transform="matrix(1.3333333,0,0,-1.3333333,0,720)"
           clip-path="url(#clipPath45)"
           id="path101" />
        <path
           d="m 606.898,358.129 v 126 h 353.111 v -126 z"
           style="fill:#f29290;fill-opacity:1;fill-rule:evenodd;stroke:none"
           transform="matrix(1.3333333,0,0,-1.3333333,0,720)"
           clip-path="url(#clipPath45)"
           id="path102" />
        <path
           d="m 617.924,358.129 v 126 h 342.085 v -126 z"
           style="fill:#f1908e;fill-opacity:1;fill-rule:evenodd;stroke:none"
           transform="matrix(1.3333333,0,0,-1.3333333,0,720)"
           clip-path="url(#clipPath45)"
           id="path103" />
        <path
           d="m 628.951,358.129 v 126 h 331.058 v -126 z"
           style="fill:#f18e8c;fill-opacity:1;fill-rule:evenodd;stroke:none"
           transform="matrix(1.3333333,0,0,-1.3333333,0,720)"
           clip-path="url(#clipPath45)"
           id="path104" />
        <path
           d="m 639.978,358.129 v 126 h 320.031 v -126 z"
           style="fill:#f18c8a;fill-opacity:1;fill-rule:evenodd;stroke:none"
           transform="matrix(1.3333333,0,0,-1.3333333,0,720)"
           clip-path="url(#clipPath45)"
           id="path105" />
        <path
           d="m 651.033,358.129 v 126 h 308.976 v -126 z"
           style="fill:#f18a88;fill-opacity:1;fill-rule:evenodd;stroke:none"
           transform="matrix(1.3333333,0,0,-1.3333333,0,720)"
           clip-path="url(#clipPath45)"
           id="path106" />
        <path
           d="m 662.06,358.129 v 126 h 297.949 v -126 z"
           style="fill:#f08886;fill-opacity:1;fill-rule:evenodd;stroke:none"
           transform="matrix(1.3333333,0,0,-1.3333333,0,720)"
           clip-path="url(#clipPath45)"
           id="path107" />
        <path
           d="m 673.087,358.129 v 126 h 286.922 v -126 z"
           style="fill:#f08684;fill-opacity:1;fill-rule:evenodd;stroke:none"
           transform="matrix(1.3333333,0,0,-1.3333333,0,720)"
           clip-path="url(#clipPath45)"
           id="path108" />
        <path
           d="m 684.113,358.129 v 126 h 275.896 v -126 z"
           style="fill:#f08482;fill-opacity:1;fill-rule:evenodd;stroke:none"
           transform="matrix(1.3333333,0,0,-1.3333333,0,720)"
           clip-path="url(#clipPath45)"
           id="path109" />
        <path
           d="m 695.169,358.129 v 126 h 264.84 v -126 z"
           style="fill:#f08280;fill-opacity:1;fill-rule:evenodd;stroke:none"
           transform="matrix(1.3333333,0,0,-1.3333333,0,720)"
           clip-path="url(#clipPath45)"
           id="path110" />
        <path
           d="m 706.195,358.129 v 126 h 253.814 v -126 z"
           style="fill:#ef807e;fill-opacity:1;fill-rule:evenodd;stroke:none"
           transform="matrix(1.3333333,0,0,-1.3333333,0,720)"
           clip-path="url(#clipPath45)"
           id="path111" />
        <path
           d="m 717.222,358.129 v 126 h 242.787 v -126 z"
           style="fill:#ef7e7b;fill-opacity:1;fill-rule:evenodd;stroke:none"
           transform="matrix(1.3333333,0,0,-1.3333333,0,720)"
           clip-path="url(#clipPath45)"
           id="path112" />
        <path
           d="m 728.249,358.129 v 126 h 231.76 v -126 z"
           style="fill:#ef7c79;fill-opacity:1;fill-rule:evenodd;stroke:none"
           transform="matrix(1.3333333,0,0,-1.3333333,0,720)"
           clip-path="url(#clipPath45)"
           id="path113" />
        <path
           d="m 739.304,358.129 v 126 h 220.705 v -126 z"
           style="fill:#ef7a77;fill-opacity:1;fill-rule:evenodd;stroke:none"
           transform="matrix(1.3333333,0,0,-1.3333333,0,720)"
           clip-path="url(#clipPath45)"
           id="path114" />
        <path
           d="m 750.331,358.129 v 126 h 209.678 v -126 z"
           style="fill:#ee7875;fill-opacity:1;fill-rule:evenodd;stroke:none"
           transform="matrix(1.3333333,0,0,-1.3333333,0,720)"
           clip-path="url(#clipPath45)"
           id="path115" />
        <path
           d="m 761.357,358.129 v 126 h 198.652 v -126 z"
           style="fill:#ee7673;fill-opacity:1;fill-rule:evenodd;stroke:none"
           transform="matrix(1.3333333,0,0,-1.3333333,0,720)"
           clip-path="url(#clipPath45)"
           id="path116" />
        <path
           d="m 772.413,358.129 v 126 h 187.596 v -126 z"
           style="fill:#ee7471;fill-opacity:1;fill-rule:evenodd;stroke:none"
           transform="matrix(1.3333333,0,0,-1.3333333,0,720)"
           clip-path="url(#clipPath45)"
           id="path117" />
        <path
           d="m 783.439,358.129 v 126 h 176.57 v -126 z"
           style="fill:#ee726f;fill-opacity:1;fill-rule:evenodd;stroke:none"
           transform="matrix(1.3333333,0,0,-1.3333333,0,720)"
           clip-path="url(#clipPath45)"
           id="path118" />
        <path
           d="m 794.466,358.129 v 126 h 165.543 v -126 z"
           style="fill:#ed706d;fill-opacity:1;fill-rule:evenodd;stroke:none"
           transform="matrix(1.3333333,0,0,-1.3333333,0,720)"
           clip-path="url(#clipPath45)"
           id="path119" />
        <path
           d="m 805.493,358.129 v 126 h 154.516 v -126 z"
           style="fill:#ed6e6b;fill-opacity:1;fill-rule:evenodd;stroke:none"
           transform="matrix(1.3333333,0,0,-1.3333333,0,720)"
           clip-path="url(#clipPath45)"
           id="path120" />
        <path
           d="m 816.548,358.129 v 126 h 143.461 v -126 z"
           style="fill:#ed6c69;fill-opacity:1;fill-rule:evenodd;stroke:none"
           transform="matrix(1.3333333,0,0,-1.3333333,0,720)"
           clip-path="url(#clipPath45)"
           id="path121" />
        <path
           d="m 827.575,358.129 v 126 h 132.434 v -126 z"
           style="fill:#ed6a67;fill-opacity:1;fill-rule:evenodd;stroke:none"
           transform="matrix(1.3333333,0,0,-1.3333333,0,720)"
           clip-path="url(#clipPath45)"
           id="path122" />
        <path
           d="m 838.602,358.129 v 126 h 121.407 v -126 z"
           style="fill:#ec6865;fill-opacity:1;fill-rule:evenodd;stroke:none"
           transform="matrix(1.3333333,0,0,-1.3333333,0,720)"
           clip-path="url(#clipPath45)"
           id="path123" />
        <path
           d="m 849.628,358.129 v 126 h 110.381 v -126 z"
           style="fill:#ec6663;fill-opacity:1;fill-rule:evenodd;stroke:none"
           transform="matrix(1.3333333,0,0,-1.3333333,0,720)"
           clip-path="url(#clipPath45)"
           id="path124" />
        <path
           d="m 860.683,358.129 v 126 h 99.326 v -126 z"
           style="fill:#ec6461;fill-opacity:1;fill-rule:evenodd;stroke:none"
           transform="matrix(1.3333333,0,0,-1.3333333,0,720)"
           clip-path="url(#clipPath45)"
           id="path125" />
        <path
           d="m 871.71,358.129 v 126 h 88.299 v -126 z"
           style="fill:#ec625f;fill-opacity:1;fill-rule:evenodd;stroke:none"
           transform="matrix(1.3333333,0,0,-1.3333333,0,720)"
           clip-path="url(#clipPath45)"
           id="path126" />
        <path
           d="m 882.737,358.129 v 126 h 77.272 v -126 z"
           style="fill:#eb605d;fill-opacity:1;fill-rule:evenodd;stroke:none"
           transform="matrix(1.3333333,0,0,-1.3333333,0,720)"
           clip-path="url(#clipPath45)"
           id="path127" />
        <path
           d="m 893.764,358.129 v 126 h 66.245 v -126 z"
           style="fill:#eb5e5b;fill-opacity:1;fill-rule:evenodd;stroke:none"
           transform="matrix(1.3333333,0,0,-1.3333333,0,720)"
           clip-path="url(#clipPath45)"
           id="path128" />
        <path
           d="m 904.819,358.129 v 126 h 55.19 v -126 z"
           style="fill:#eb5c59;fill-opacity:1;fill-rule:evenodd;stroke:none"
           transform="matrix(1.3333333,0,0,-1.3333333,0,720)"
           clip-path="url(#clipPath45)"
           id="path129" />
        <path
           d="m 915.846,358.129 v 126 h 44.163 v -126 z"
           style="fill:#eb5a57;fill-opacity:1;fill-rule:evenodd;stroke:none"
           transform="matrix(1.3333333,0,0,-1.3333333,0,720)"
           clip-path="url(#clipPath45)"
           id="path130" />
        <path
           d="m 926.872,358.129 v 126 h 33.137 v -126 z"
           style="fill:#ea5855;fill-opacity:1;fill-rule:evenodd;stroke:none"
           transform="matrix(1.3333333,0,0,-1.3333333,0,720)"
           clip-path="url(#clipPath45)"
           id="path131" />
        <path
           d="m 937.899,358.129 v 126 h 22.11 v -126 z"
           style="fill:#ea5653;fill-opacity:1;fill-rule:evenodd;stroke:none"
           transform="matrix(1.3333333,0,0,-1.3333333,0,720)"
           clip-path="url(#clipPath45)"
           id="path132" />
        <path
           d="m 948.954,358.129 v 126 h 11.055 v -126 z"
           style="fill:#ea5451;fill-opacity:1;fill-rule:evenodd;stroke:none"
           transform="matrix(1.3333333,0,0,-1.3333333,0,720)"
           clip-path="url(#clipPath45)"
           id="path133" />
      </g>
    </g>
    <path
       id="path134"
       d="m 764.107,474.293 v 0 c 0,1.729 0.454,3.43 1.332,4.932 0.879,1.503 2.126,2.721 3.629,3.6 1.502,0.851 3.231,1.332 4.96,1.332 v 0 c 1.729,0 3.459,-0.481 4.961,-1.332 1.502,-0.879 2.75,-2.097 3.628,-3.6 0.879,-1.502 1.333,-3.203 1.333,-4.932 v 0 0 c 0,-1.729 -0.454,-3.43 -1.333,-4.932 -0.878,-1.503 -2.126,-2.722 -3.628,-3.6 -1.502,-0.851 -3.232,-1.304 -4.961,-1.304 v 0 c -1.729,0 -3.458,0.453 -4.96,1.304 -1.503,0.878 -2.75,2.097 -3.629,3.6 -0.878,1.502 -1.332,3.203 -1.332,4.932 z"
       style="fill:#ea5451;fill-opacity:0.8;fill-rule:evenodd;stroke:none"
       transform="matrix(1.3333333,0,0,-1.3333333,0,720)" />
    <g
       opacity="0.7"
       id="g136">
      <path
         d="m 638.731,474.293 v 0 c 0,1.729 0.453,3.43 1.332,4.932 0.879,1.503 2.126,2.721 3.628,3.6 1.503,0.851 3.232,1.332 4.961,1.332 v 0 c 1.729,0 3.458,-0.481 4.961,-1.332 1.502,-0.879 2.749,-2.097 3.628,-3.6 0.879,-1.502 1.332,-3.203 1.332,-4.932 v 0 0 c 0,-1.729 -0.453,-3.43 -1.332,-4.932 -0.879,-1.503 -2.126,-2.722 -3.628,-3.6 -1.503,-0.851 -3.232,-1.304 -4.961,-1.304 v 0 c -1.729,0 -3.458,0.453 -4.961,1.304 -1.502,0.878 -2.749,2.097 -3.628,3.6 -0.879,1.502 -1.332,3.203 -1.332,4.932 z"
         style="fill:#ea5451;fill-opacity:1;fill-rule:evenodd;stroke:none"
         transform="matrix(1.3333333,0,0,-1.3333333,0,720)"
         clip-path="url(#clipPath135)"
         id="path136" />
    </g>
    <g
       opacity="0.3"
       id="g138">
      <path
         d="m 228.387,367.994 v 0 c 0,1.729 0.454,3.43 1.333,4.932 0.878,1.502 2.126,2.721 3.628,3.6 1.502,0.85 3.232,1.332 4.961,1.332 v 0 c 1.729,0 3.458,-0.482 4.96,-1.332 1.503,-0.879 2.75,-2.098 3.629,-3.6 0.878,-1.502 1.332,-3.203 1.332,-4.932 v 0 0 c 0,-1.729 -0.454,-3.43 -1.332,-4.933 -0.879,-1.502 -2.126,-2.721 -3.629,-3.6 -1.502,-0.85 -3.231,-1.304 -4.96,-1.304 v 0 c -1.729,0 -3.459,0.454 -4.961,1.304 -1.502,0.879 -2.75,2.098 -3.628,3.6 -0.879,1.503 -1.333,3.204 -1.333,4.933 z"
         style="fill:#ea5451;fill-opacity:1;fill-rule:evenodd;stroke:none"
         transform="matrix(1.3333333,0,0,-1.3333333,0,720)"
         clip-path="url(#clipPath137)"
         id="path138" />
    </g>
  </g>
</svg>
